<svg width="326" height="211" viewBox="0 0 326 211" fill="none" xmlns="http://www.w3.org/2000/svg">
<g opacity="0.6" filter="url(#filter0_d_114_521)">
<rect x="321.56" width="202.582" height="317.56" rx="12" transform="rotate(90 321.56 0)" fill="white"/>
</g>
<path d="M210.248 167.058V165.622C209.724 165.613 209.222 165.567 208.744 165.485C208.27 165.403 207.882 165.296 207.582 165.164V164.057C207.896 164.202 208.299 164.33 208.792 164.439C209.284 164.549 209.769 164.608 210.248 164.617V161.609C209.646 161.441 209.147 161.249 208.751 161.035C208.359 160.816 208.065 160.55 207.869 160.235C207.673 159.921 207.575 159.54 207.575 159.094C207.575 158.629 207.684 158.232 207.903 157.904C208.126 157.572 208.438 157.312 208.84 157.125C209.241 156.938 209.71 156.831 210.248 156.804V155.621H211.082V156.79C211.569 156.804 212.014 156.858 212.415 156.954C212.816 157.045 213.187 157.164 213.529 157.309L213.174 158.26C212.864 158.137 212.529 158.032 212.169 157.945C211.809 157.859 211.446 157.799 211.082 157.767V160.755C211.692 160.933 212.203 161.122 212.613 161.322C213.028 161.523 213.34 161.771 213.549 162.067C213.759 162.363 213.864 162.746 213.864 163.216C213.864 163.881 213.62 164.419 213.132 164.829C212.645 165.235 211.961 165.481 211.082 165.567V167.058H210.248ZM211.082 164.556C211.642 164.501 212.059 164.366 212.333 164.152C212.611 163.933 212.75 163.646 212.75 163.291C212.75 163.036 212.695 162.826 212.586 162.662C212.481 162.498 212.308 162.357 212.066 162.238C211.825 162.115 211.496 161.999 211.082 161.89V164.556ZM210.248 160.468V157.795C209.906 157.818 209.619 157.881 209.386 157.986C209.154 158.091 208.979 158.228 208.86 158.396C208.746 158.565 208.689 158.766 208.689 158.998C208.689 159.267 208.739 159.492 208.84 159.675C208.944 159.852 209.111 160.005 209.339 160.133C209.571 160.256 209.874 160.367 210.248 160.468ZM219.567 160.133C220.246 160.133 220.836 160.249 221.338 160.481C221.839 160.709 222.226 161.042 222.5 161.479C222.778 161.917 222.917 162.448 222.917 163.072C222.917 163.756 222.769 164.346 222.472 164.843C222.176 165.335 221.75 165.715 221.194 165.984C220.638 166.249 219.973 166.381 219.198 166.381C218.678 166.381 218.195 166.335 217.749 166.244C217.302 166.153 216.926 166.016 216.621 165.834V164.754C216.953 164.954 217.357 165.114 217.831 165.232C218.305 165.351 218.765 165.41 219.212 165.41C219.717 165.41 220.16 165.33 220.538 165.171C220.921 165.007 221.217 164.761 221.426 164.433C221.641 164.1 221.748 163.683 221.748 163.182C221.748 162.516 221.543 162.003 221.132 161.643C220.727 161.279 220.084 161.097 219.205 161.097C218.922 161.097 218.612 161.119 218.275 161.165C217.938 161.211 217.66 161.261 217.441 161.315L216.867 160.939L217.25 156.25H222.219V157.289H218.22L217.967 160.304C218.141 160.267 218.364 160.231 218.637 160.194C218.911 160.153 219.221 160.133 219.567 160.133ZM232.024 161.233C232.024 162.044 231.963 162.769 231.84 163.407C231.716 164.045 231.523 164.585 231.258 165.027C230.994 165.469 230.652 165.807 230.233 166.039C229.814 166.267 229.31 166.381 228.722 166.381C227.979 166.381 227.364 166.178 226.877 165.772C226.394 165.367 226.031 164.781 225.79 164.016C225.553 163.245 225.434 162.318 225.434 161.233C225.434 160.167 225.541 159.251 225.756 158.485C225.974 157.715 226.325 157.125 226.808 156.715C227.291 156.3 227.929 156.093 228.722 156.093C229.474 156.093 230.094 156.298 230.582 156.708C231.069 157.113 231.432 157.701 231.669 158.472C231.906 159.237 232.024 160.158 232.024 161.233ZM226.576 161.233C226.576 162.163 226.646 162.938 226.788 163.558C226.929 164.177 227.157 164.642 227.471 164.952C227.79 165.257 228.207 165.41 228.722 165.41C229.237 165.41 229.652 165.257 229.966 164.952C230.285 164.647 230.516 164.184 230.657 163.564C230.803 162.945 230.876 162.168 230.876 161.233C230.876 160.317 230.805 159.552 230.664 158.936C230.522 158.317 230.295 157.852 229.98 157.542C229.666 157.227 229.246 157.07 228.722 157.07C228.198 157.07 227.779 157.227 227.465 157.542C227.15 157.852 226.922 158.317 226.781 158.936C226.644 159.552 226.576 160.317 226.576 161.233ZM241.036 161.233C241.036 162.044 240.974 162.769 240.851 163.407C240.728 164.045 240.535 164.585 240.27 165.027C240.006 165.469 239.664 165.807 239.245 166.039C238.826 166.267 238.322 166.381 237.734 166.381C236.991 166.381 236.376 166.178 235.888 165.772C235.405 165.367 235.043 164.781 234.801 164.016C234.564 163.245 234.446 162.318 234.446 161.233C234.446 160.167 234.553 159.251 234.767 158.485C234.986 157.715 235.337 157.125 235.82 156.715C236.303 156.3 236.941 156.093 237.734 156.093C238.486 156.093 239.106 156.298 239.593 156.708C240.081 157.113 240.443 157.701 240.68 158.472C240.917 159.237 241.036 160.158 241.036 161.233ZM235.588 161.233C235.588 162.163 235.658 162.938 235.799 163.558C235.941 164.177 236.169 164.642 236.483 164.952C236.802 165.257 237.219 165.41 237.734 165.41C238.249 165.41 238.664 165.257 238.978 164.952C239.297 164.647 239.527 164.184 239.669 163.564C239.814 162.945 239.887 162.168 239.887 161.233C239.887 160.317 239.817 159.552 239.675 158.936C239.534 158.317 239.306 157.852 238.992 157.542C238.677 157.227 238.258 157.07 237.734 157.07C237.21 157.07 236.791 157.227 236.476 157.542C236.162 157.852 235.934 158.317 235.793 158.936C235.656 159.552 235.588 160.317 235.588 161.233ZM252.374 156.25L248.655 166.244H247.534L251.259 156.25H252.374ZM263.93 166.244L260.574 157.398H260.519C260.537 157.585 260.553 157.813 260.567 158.082C260.581 158.351 260.592 158.645 260.601 158.964C260.61 159.278 260.615 159.6 260.615 159.928V166.244H259.535V156.25H261.257L264.423 164.562H264.47L267.683 156.25H269.392V166.244H268.244V159.846C268.244 159.549 268.248 159.253 268.257 158.957C268.267 158.656 268.278 158.374 268.292 158.109C268.305 157.84 268.319 157.608 268.333 157.412H268.278L264.881 166.244H263.93ZM279.416 162.484C279.416 163.1 279.336 163.649 279.176 164.132C279.017 164.615 278.787 165.023 278.486 165.355C278.185 165.688 277.821 165.943 277.392 166.121C276.968 166.294 276.488 166.381 275.95 166.381C275.449 166.381 274.988 166.294 274.569 166.121C274.154 165.943 273.794 165.688 273.489 165.355C273.188 165.023 272.953 164.615 272.785 164.132C272.621 163.649 272.539 163.1 272.539 162.484C272.539 161.664 272.678 160.967 272.956 160.392C273.234 159.814 273.63 159.374 274.145 159.073C274.665 158.768 275.282 158.615 275.998 158.615C276.681 158.615 277.278 158.768 277.789 159.073C278.304 159.378 278.702 159.821 278.985 160.399C279.272 160.974 279.416 161.669 279.416 162.484ZM273.715 162.484C273.715 163.086 273.794 163.608 273.954 164.05C274.113 164.492 274.359 164.834 274.692 165.075C275.025 165.317 275.453 165.437 275.977 165.437C276.497 165.437 276.923 165.317 277.256 165.075C277.593 164.834 277.841 164.492 278.001 164.05C278.16 163.608 278.24 163.086 278.24 162.484C278.24 161.887 278.16 161.372 278.001 160.939C277.841 160.502 277.595 160.165 277.262 159.928C276.93 159.691 276.499 159.572 275.97 159.572C275.191 159.572 274.619 159.83 274.255 160.345C273.895 160.86 273.715 161.573 273.715 162.484ZM285.925 158.615C286.814 158.615 287.486 158.834 287.942 159.271C288.398 159.704 288.626 160.402 288.626 161.363V166.244H287.505V161.438C287.505 160.814 287.361 160.347 287.074 160.037C286.791 159.727 286.356 159.572 285.768 159.572C284.939 159.572 284.355 159.807 284.018 160.276C283.681 160.746 283.512 161.427 283.512 162.32V166.244H282.378V158.752H283.294L283.465 159.832H283.526C283.686 159.568 283.888 159.347 284.134 159.169C284.381 158.987 284.656 158.85 284.962 158.759C285.267 158.663 285.588 158.615 285.925 158.615ZM294.383 165.451C294.57 165.451 294.762 165.435 294.958 165.403C295.154 165.371 295.313 165.333 295.436 165.287V166.169C295.304 166.228 295.119 166.278 294.882 166.319C294.65 166.36 294.422 166.381 294.199 166.381C293.802 166.381 293.442 166.312 293.119 166.176C292.795 166.034 292.535 165.797 292.34 165.465C292.148 165.132 292.052 164.672 292.052 164.084V159.641H290.986V159.087L292.059 158.642L292.51 157.016H293.194V158.752H295.388V159.641H293.194V164.05C293.194 164.519 293.301 164.87 293.515 165.102C293.734 165.335 294.023 165.451 294.383 165.451ZM299.089 155.607V158.786C299.089 158.968 299.084 159.153 299.075 159.34C299.066 159.522 299.05 159.691 299.027 159.846H299.102C299.257 159.581 299.453 159.36 299.69 159.183C299.932 159 300.205 158.863 300.51 158.772C300.816 158.677 301.139 158.629 301.481 158.629C302.083 158.629 302.584 158.725 302.985 158.916C303.391 159.107 303.694 159.404 303.894 159.805C304.099 160.206 304.202 160.725 304.202 161.363V166.244H303.081V161.438C303.081 160.814 302.937 160.347 302.65 160.037C302.368 159.727 301.932 159.572 301.344 159.572C300.788 159.572 300.344 159.679 300.011 159.893C299.683 160.103 299.446 160.413 299.3 160.823C299.159 161.233 299.089 161.735 299.089 162.327V166.244H297.954V155.607H299.089Z" fill="#949494"/>
<path d="M27.541 166.813V165.378C27.0169 165.369 26.5156 165.323 26.0371 165.241C25.5632 165.159 25.1758 165.052 24.875 164.92V163.813C25.1895 163.958 25.5928 164.086 26.085 164.195C26.5771 164.305 27.0625 164.364 27.541 164.373V161.365C26.9395 161.197 26.4404 161.005 26.0439 160.791C25.652 160.572 25.3581 160.306 25.1621 159.991C24.9661 159.677 24.8682 159.296 24.8682 158.85C24.8682 158.385 24.9775 157.988 25.1963 157.66C25.4196 157.327 25.7318 157.068 26.1328 156.881C26.5339 156.694 27.0033 156.587 27.541 156.56V155.377H28.375V156.546C28.8626 156.56 29.307 156.614 29.708 156.71C30.109 156.801 30.4805 156.92 30.8223 157.065L30.4668 158.016C30.1569 157.893 29.8219 157.788 29.4619 157.701C29.1019 157.615 28.7396 157.555 28.375 157.523V160.511C28.9857 160.688 29.4961 160.878 29.9062 161.078C30.321 161.279 30.6331 161.527 30.8428 161.823C31.0524 162.119 31.1572 162.502 31.1572 162.972C31.1572 163.637 30.9134 164.175 30.4258 164.585C29.9382 164.991 29.2546 165.237 28.375 165.323V166.813H27.541ZM28.375 164.312C28.9355 164.257 29.3525 164.122 29.626 163.908C29.904 163.689 30.043 163.402 30.043 163.047C30.043 162.792 29.9883 162.582 29.8789 162.418C29.7741 162.254 29.6009 162.113 29.3594 161.994C29.1178 161.871 28.7897 161.755 28.375 161.646V164.312ZM27.541 160.224V157.551C27.1992 157.574 26.9121 157.637 26.6797 157.742C26.4473 157.847 26.2718 157.984 26.1533 158.152C26.0394 158.321 25.9824 158.521 25.9824 158.754C25.9824 159.023 26.0326 159.248 26.1328 159.431C26.2376 159.608 26.404 159.761 26.6318 159.889C26.8643 160.012 27.1673 160.123 27.541 160.224ZM39.8818 158.337C39.8818 158.784 39.7952 159.171 39.6221 159.499C39.4489 159.827 39.2074 160.096 38.8975 160.306C38.5876 160.511 38.223 160.654 37.8037 160.736V160.791C38.5967 160.891 39.1914 161.146 39.5879 161.557C39.9889 161.967 40.1895 162.505 40.1895 163.17C40.1895 163.749 40.0527 164.261 39.7793 164.708C39.5104 165.155 39.0957 165.506 38.5352 165.761C37.9792 166.011 37.266 166.137 36.3955 166.137C35.8669 166.137 35.377 166.093 34.9258 166.007C34.4792 165.925 34.0508 165.786 33.6406 165.59V164.523C34.0553 164.729 34.5065 164.89 34.9941 165.009C35.4818 165.123 35.9535 165.18 36.4092 165.18C37.3206 165.18 37.9792 165 38.3848 164.64C38.7904 164.275 38.9932 163.778 38.9932 163.149C38.9932 162.716 38.8792 162.368 38.6514 162.104C38.4281 161.835 38.1045 161.639 37.6807 161.516C37.2614 161.388 36.7555 161.324 36.1631 161.324H35.165V160.354H36.1699C36.7122 160.354 37.1725 160.274 37.5508 160.114C37.929 159.955 38.2161 159.731 38.4121 159.444C38.6126 159.153 38.7129 158.809 38.7129 158.412C38.7129 157.906 38.5443 157.517 38.207 157.243C37.8698 156.965 37.4118 156.826 36.833 156.826C36.4775 156.826 36.154 156.863 35.8623 156.936C35.5706 157.008 35.2972 157.109 35.042 157.236C34.7868 157.364 34.5316 157.512 34.2764 157.681L33.7021 156.901C34.0667 156.619 34.5111 156.375 35.0352 156.17C35.5592 155.965 36.154 155.862 36.8193 155.862C37.8402 155.862 38.6058 156.095 39.1162 156.56C39.6266 157.024 39.8818 157.617 39.8818 158.337ZM49.2627 166H42.7139V165.05L45.3867 162.336C45.8835 161.835 46.3005 161.388 46.6377 160.996C46.9795 160.604 47.2393 160.219 47.417 159.841C47.5947 159.458 47.6836 159.039 47.6836 158.583C47.6836 158.018 47.515 157.587 47.1777 157.291C46.8451 156.99 46.4053 156.84 45.8584 156.84C45.3799 156.84 44.9561 156.922 44.5869 157.086C44.2178 157.25 43.8395 157.482 43.4521 157.783L42.8438 157.018C43.1081 156.794 43.3952 156.596 43.7051 156.423C44.0195 156.25 44.3545 156.113 44.71 156.013C45.07 155.912 45.4528 155.862 45.8584 155.862C46.4736 155.862 47.0046 155.969 47.4512 156.184C47.8978 156.398 48.2419 156.703 48.4834 157.1C48.7295 157.496 48.8525 157.968 48.8525 158.515C48.8525 159.043 48.7477 159.535 48.5381 159.991C48.3285 160.442 48.0345 160.891 47.6562 161.338C47.278 161.78 46.8359 162.249 46.3301 162.746L44.1562 164.913V164.961H49.2627V166ZM54.8838 159.889C55.5628 159.889 56.153 160.005 56.6543 160.237C57.1556 160.465 57.543 160.798 57.8164 161.235C58.0944 161.673 58.2334 162.204 58.2334 162.828C58.2334 163.512 58.0853 164.102 57.7891 164.599C57.4928 165.091 57.0667 165.471 56.5107 165.74C55.9548 166.005 55.2894 166.137 54.5146 166.137C53.9951 166.137 53.512 166.091 53.0654 166C52.6188 165.909 52.2428 165.772 51.9375 165.59V164.51C52.2702 164.71 52.6735 164.87 53.1475 164.988C53.6214 165.107 54.0817 165.166 54.5283 165.166C55.0342 165.166 55.4762 165.086 55.8545 164.927C56.2373 164.763 56.5335 164.517 56.7432 164.188C56.9574 163.856 57.0645 163.439 57.0645 162.938C57.0645 162.272 56.8594 161.759 56.4492 161.399C56.0436 161.035 55.401 160.853 54.5215 160.853C54.2389 160.853 53.929 160.875 53.5918 160.921C53.2546 160.966 52.9766 161.017 52.7578 161.071L52.1836 160.695L52.5664 156.006H57.5361V157.045H53.5371L53.2842 160.06C53.4574 160.023 53.6807 159.987 53.9541 159.95C54.2275 159.909 54.5374 159.889 54.8838 159.889ZM61.0723 165.289C61.0723 164.97 61.1497 164.744 61.3047 164.612C61.4596 164.476 61.6488 164.407 61.8721 164.407C62.1045 164.407 62.3005 164.476 62.46 164.612C62.6195 164.744 62.6992 164.97 62.6992 165.289C62.6992 165.604 62.6195 165.834 62.46 165.98C62.3005 166.121 62.1045 166.191 61.8721 166.191C61.6488 166.191 61.4596 166.121 61.3047 165.98C61.1497 165.834 61.0723 165.604 61.0723 165.289ZM68.7168 155.862C69.2956 155.862 69.8083 155.953 70.2549 156.136C70.7015 156.318 71.0501 156.587 71.3008 156.942C71.556 157.293 71.6836 157.726 71.6836 158.241C71.6836 158.647 71.5947 159.002 71.417 159.308C71.2438 159.608 71.0091 159.873 70.7129 160.101C70.4167 160.324 70.0885 160.524 69.7285 160.702C70.1569 160.898 70.542 161.119 70.8838 161.365C71.2301 161.611 71.5036 161.901 71.7041 162.233C71.9046 162.566 72.0049 162.96 72.0049 163.416C72.0049 163.977 71.8682 164.462 71.5947 164.872C71.3258 165.278 70.9476 165.59 70.46 165.809C69.9723 166.027 69.4004 166.137 68.7441 166.137C68.0378 166.137 67.4362 166.032 66.9395 165.822C66.4473 165.608 66.0713 165.303 65.8115 164.906C65.5563 164.505 65.4287 164.024 65.4287 163.464C65.4287 163.004 65.5267 162.605 65.7227 162.268C65.9186 161.926 66.1784 161.632 66.502 161.386C66.8255 161.14 67.1787 160.932 67.5615 160.764C67.2288 160.581 66.9235 160.374 66.6455 160.142C66.3721 159.909 66.1533 159.638 65.9893 159.328C65.8298 159.014 65.75 158.649 65.75 158.234C65.75 157.729 65.8776 157.3 66.1328 156.949C66.3926 156.594 66.7458 156.325 67.1924 156.143C67.6436 155.956 68.1517 155.862 68.7168 155.862ZM66.543 163.471C66.543 163.981 66.723 164.403 67.083 164.735C67.443 165.063 67.9876 165.228 68.7168 165.228C69.4095 165.228 69.945 165.063 70.3232 164.735C70.7015 164.403 70.8906 163.967 70.8906 163.43C70.8906 163.097 70.804 162.805 70.6309 162.555C70.4577 162.299 70.2116 162.072 69.8926 161.871C69.5736 161.671 69.1976 161.488 68.7646 161.324L68.5186 161.235C68.0993 161.409 67.7415 161.602 67.4453 161.816C67.1536 162.026 66.9303 162.265 66.7754 162.534C66.6204 162.803 66.543 163.115 66.543 163.471ZM68.7031 156.792C68.1654 156.792 67.7256 156.922 67.3838 157.182C67.042 157.437 66.8711 157.806 66.8711 158.289C66.8711 158.635 66.9531 158.929 67.1172 159.171C67.2858 159.408 67.5137 159.613 67.8008 159.786C68.0879 159.955 68.4092 160.112 68.7646 160.258C69.111 160.112 69.4186 159.952 69.6875 159.779C69.9564 159.602 70.1683 159.392 70.3232 159.15C70.4782 158.909 70.5557 158.619 70.5557 158.282C70.5557 157.799 70.3848 157.43 70.043 157.175C69.7057 156.92 69.2591 156.792 68.7031 156.792ZM74.5293 161.728C74.5293 161.126 74.5703 160.538 74.6523 159.964C74.7389 159.39 74.8825 158.856 75.083 158.364C75.2835 157.868 75.557 157.432 75.9033 157.059C76.2497 156.685 76.6803 156.393 77.1953 156.184C77.7148 155.969 78.3369 155.862 79.0615 155.862C79.2666 155.862 79.4876 155.874 79.7246 155.896C79.9616 155.915 80.1576 155.947 80.3125 155.992V156.97C80.1439 156.91 79.9502 156.867 79.7314 156.84C79.5173 156.813 79.3008 156.799 79.082 156.799C78.2344 156.799 77.5667 156.983 77.0791 157.353C76.596 157.722 76.2474 158.223 76.0332 158.856C75.819 159.485 75.696 160.194 75.6641 160.982H75.7393C75.8805 160.755 76.0605 160.549 76.2793 160.367C76.498 160.18 76.7624 160.032 77.0723 159.923C77.3867 159.813 77.7513 159.759 78.166 159.759C78.7493 159.759 79.2575 159.877 79.6904 160.114C80.1279 160.351 80.4652 160.695 80.7021 161.146C80.9437 161.598 81.0645 162.145 81.0645 162.787C81.0645 163.475 80.9368 164.07 80.6816 164.571C80.4264 165.073 80.0618 165.46 79.5879 165.733C79.1185 166.002 78.5579 166.137 77.9062 166.137C77.4186 166.137 76.9697 166.043 76.5596 165.856C76.1494 165.67 75.7917 165.392 75.4863 165.022C75.1855 164.653 74.9508 164.195 74.7822 163.648C74.6136 163.097 74.5293 162.457 74.5293 161.728ZM77.8926 165.18C78.5124 165.18 79.0091 164.981 79.3828 164.585C79.7565 164.188 79.9434 163.589 79.9434 162.787C79.9434 162.131 79.777 161.611 79.4443 161.229C79.1117 160.846 78.6104 160.654 77.9404 160.654C77.4847 160.654 77.0882 160.75 76.751 160.941C76.4137 161.128 76.1517 161.365 75.9648 161.652C75.778 161.939 75.6846 162.231 75.6846 162.527C75.6846 162.828 75.7279 163.133 75.8145 163.443C75.9056 163.753 76.0423 164.04 76.2246 164.305C76.4069 164.569 76.637 164.781 76.915 164.94C77.193 165.1 77.5189 165.18 77.8926 165.18Z" fill="#949494"/>
<rect x="253.343" y="88.244" width="44" height="32" rx="5" stroke="#D2D2D2" stroke-width="2"/>
<rect x="284.343" y="88.244" width="32" height="18" rx="9" transform="rotate(90 284.343 88.244)" stroke="#D2D2D2" stroke-width="2"/>
<line x1="285.343" y1="97.244" x2="296.343" y2="97.244" stroke="#D2D2D2" stroke-width="2" stroke-linecap="round"/>
<line x1="296.343" y1="111.244" x2="285.343" y2="111.244" stroke="#D2D2D2" stroke-width="2" stroke-linecap="round"/>
<line x1="254.343" y1="97.244" x2="265.343" y2="97.244" stroke="#D2D2D2" stroke-width="2" stroke-linecap="round"/>
<line x1="265.343" y1="111.244" x2="254.343" y2="111.244" stroke="#D2D2D2" stroke-width="2" stroke-linecap="round"/>
<rect x="24.3434" y="176.244" width="281" height="7" rx="3" fill="#E4E4E4"/>
<rect x="24.3434" y="176.244" width="168" height="7" rx="3" fill="#A0D995"/>
<path d="M24.0974 48.6499C23.5248 43.8064 25.4891 38.9805 29.6555 34.9943C33.8219 31.0081 39.9326 28.1083 46.9464 26.7891C53.9603 25.4698 61.4433 25.8126 68.1205 27.7592C74.7977 29.7057 80.2559 33.1356 83.5651 37.4642C86.8744 41.7929 87.8299 46.7526 86.2688 51.4983C84.7077 56.244 80.7267 60.482 75.0041 63.4903C69.2814 66.4985 62.1712 68.0909 54.8849 67.996C47.5986 67.9011 40.5871 66.1249 35.045 62.97L54.8849 42.8298L24.0974 48.6499Z" fill="url(#paint0_radial_114_521)"/>
<path d="M29.6396 128.888C29.0882 128.888 28.5915 128.983 28.1494 129.175C27.7119 129.362 27.3382 129.635 27.0283 129.995C26.723 130.351 26.4883 130.781 26.3242 131.287C26.1602 131.793 26.0781 132.363 26.0781 132.996C26.0781 133.835 26.208 134.564 26.4678 135.184C26.7321 135.799 27.124 136.275 27.6436 136.612C28.1676 136.95 28.8216 137.118 29.6055 137.118C30.0521 137.118 30.4714 137.082 30.8633 137.009C31.2598 136.931 31.6449 136.836 32.0186 136.722V137.733C31.654 137.87 31.2712 137.97 30.8701 138.034C30.4691 138.103 29.9928 138.137 29.4414 138.137C28.4251 138.137 27.5752 137.927 26.8916 137.508C26.2126 137.084 25.7021 136.487 25.3604 135.717C25.0231 134.947 24.8545 134.037 24.8545 132.989C24.8545 132.233 24.9593 131.542 25.1689 130.918C25.3831 130.289 25.693 129.747 26.0986 129.291C26.5088 128.835 27.0101 128.484 27.6025 128.238C28.1995 127.988 28.8831 127.862 29.6533 127.862C30.1592 127.862 30.6468 127.912 31.1162 128.013C31.5856 128.113 32.0094 128.257 32.3877 128.443L31.9229 129.428C31.6038 129.282 31.2529 129.157 30.8701 129.052C30.4919 128.942 30.0817 128.888 29.6396 128.888ZM36.1494 127.363V130.542C36.1494 130.724 36.1449 130.909 36.1357 131.096C36.1266 131.278 36.1107 131.447 36.0879 131.602H36.1631C36.318 131.337 36.514 131.116 36.751 130.938C36.9925 130.756 37.266 130.619 37.5713 130.528C37.8766 130.433 38.2002 130.385 38.542 130.385C39.1436 130.385 39.6449 130.48 40.0459 130.672C40.4515 130.863 40.7546 131.16 40.9551 131.561C41.1602 131.962 41.2627 132.481 41.2627 133.119V138H40.1416V133.194C40.1416 132.57 39.998 132.103 39.7109 131.793C39.4284 131.483 38.9932 131.328 38.4053 131.328C37.8493 131.328 37.4049 131.435 37.0723 131.649C36.7441 131.859 36.5072 132.169 36.3613 132.579C36.2201 132.989 36.1494 133.491 36.1494 134.083V138H35.0146V127.363H36.1494ZM45.7354 130.508V138H44.6006V130.508H45.7354ZM45.1816 127.705C45.3685 127.705 45.528 127.767 45.6602 127.89C45.7969 128.008 45.8652 128.195 45.8652 128.45C45.8652 128.701 45.7969 128.888 45.6602 129.011C45.528 129.134 45.3685 129.195 45.1816 129.195C44.9857 129.195 44.8216 129.134 44.6895 129.011C44.5618 128.888 44.498 128.701 44.498 128.45C44.498 128.195 44.5618 128.008 44.6895 127.89C44.8216 127.767 44.9857 127.705 45.1816 127.705ZM50.2832 138H49.1416V127.363H50.2832V138ZM56.3486 138.137C55.4007 138.137 54.6488 137.813 54.0928 137.166C53.5413 136.519 53.2656 135.557 53.2656 134.281C53.2656 132.992 53.5482 132.019 54.1133 131.362C54.6784 130.702 55.4303 130.371 56.3691 130.371C56.7656 130.371 57.112 130.424 57.4082 130.528C57.7044 130.633 57.9596 130.774 58.1738 130.952C58.388 131.125 58.568 131.324 58.7139 131.547H58.7959C58.7777 131.406 58.7594 131.212 58.7412 130.966C58.723 130.72 58.7139 130.519 58.7139 130.364V127.363H59.8486V138H58.9326L58.7617 136.934H58.7139C58.5726 137.157 58.3926 137.36 58.1738 137.542C57.9596 137.724 57.7021 137.87 57.4014 137.98C57.1051 138.084 56.7542 138.137 56.3486 138.137ZM56.5264 137.193C57.3285 137.193 57.8958 136.966 58.2285 136.51C58.5612 136.054 58.7275 135.377 58.7275 134.48V134.274C58.7275 133.322 58.568 132.591 58.249 132.08C57.9346 131.57 57.3604 131.314 56.5264 131.314C55.8291 131.314 55.3073 131.583 54.9609 132.121C54.6146 132.654 54.4414 133.383 54.4414 134.309C54.4414 135.229 54.6123 135.94 54.9541 136.441C55.3005 136.943 55.8245 137.193 56.5264 137.193ZM64.1504 128.006L64.2529 128.156C64.1709 128.489 64.0661 128.847 63.9385 129.23C63.8109 129.608 63.6719 129.986 63.5215 130.364C63.3711 130.743 63.2207 131.098 63.0703 131.431H62.2363C62.3047 131.171 62.373 130.893 62.4414 130.597C62.5143 130.3 62.5827 130 62.6465 129.694C62.7103 129.389 62.7673 129.093 62.8174 128.806C62.8721 128.519 62.9176 128.252 62.9541 128.006H64.1504ZM71.4805 135.949C71.4805 136.428 71.3597 136.831 71.1182 137.159C70.8812 137.483 70.5394 137.727 70.0928 137.891C69.6507 138.055 69.1221 138.137 68.5068 138.137C67.9827 138.137 67.5293 138.096 67.1465 138.014C66.7637 137.932 66.4287 137.815 66.1416 137.665V136.619C66.4469 136.77 66.8115 136.906 67.2354 137.029C67.6592 137.152 68.0921 137.214 68.5342 137.214C69.1813 137.214 69.6507 137.109 69.9424 136.899C70.234 136.69 70.3799 136.405 70.3799 136.045C70.3799 135.84 70.3206 135.66 70.2021 135.505C70.0882 135.345 69.8945 135.193 69.6211 135.047C69.3477 134.896 68.9694 134.732 68.4863 134.555C68.0078 134.372 67.5931 134.192 67.2422 134.015C66.8958 133.832 66.627 133.611 66.4355 133.352C66.2487 133.092 66.1553 132.755 66.1553 132.34C66.1553 131.706 66.4105 131.221 66.9209 130.884C67.4359 130.542 68.1104 130.371 68.9443 130.371C69.3955 130.371 69.8171 130.417 70.209 130.508C70.6055 130.594 70.9746 130.713 71.3164 130.863L70.9336 131.772C70.6237 131.64 70.2933 131.529 69.9424 131.438C69.5915 131.346 69.2337 131.301 68.8691 131.301C68.3451 131.301 67.9417 131.387 67.6592 131.561C67.3812 131.734 67.2422 131.971 67.2422 132.271C67.2422 132.504 67.306 132.695 67.4336 132.846C67.5658 132.996 67.7754 133.137 68.0625 133.27C68.3496 133.402 68.7279 133.557 69.1973 133.734C69.6667 133.908 70.0723 134.088 70.4141 134.274C70.7559 134.457 71.0179 134.68 71.2002 134.944C71.387 135.204 71.4805 135.539 71.4805 135.949ZM87.0498 132.907C87.0498 134.033 86.8447 134.974 86.4346 135.73C86.0244 136.482 85.4297 137.05 84.6504 137.433C83.8757 137.811 82.9346 138 81.8271 138H79.1133V128.006H82.1279C83.1442 128.006 84.0192 128.193 84.7529 128.566C85.4867 128.936 86.0518 129.485 86.4482 130.214C86.8493 130.938 87.0498 131.836 87.0498 132.907ZM85.8262 132.948C85.8262 132.05 85.6758 131.31 85.375 130.727C85.0788 130.143 84.6413 129.71 84.0625 129.428C83.4883 129.141 82.7842 128.997 81.9502 128.997H80.2754V137.002H81.6904C83.0667 137.002 84.099 136.662 84.7871 135.983C85.4798 135.304 85.8262 134.293 85.8262 132.948ZM91.2354 130.508V138H90.1006V130.508H91.2354ZM90.6816 127.705C90.8685 127.705 91.028 127.767 91.1602 127.89C91.2969 128.008 91.3652 128.195 91.3652 128.45C91.3652 128.701 91.2969 128.888 91.1602 129.011C91.028 129.134 90.8685 129.195 90.6816 129.195C90.4857 129.195 90.3216 129.134 90.1895 129.011C90.0618 128.888 89.998 128.701 89.998 128.45C89.998 128.195 90.0618 128.008 90.1895 127.89C90.3216 127.767 90.4857 127.705 90.6816 127.705ZM96.7334 141.363C95.749 141.363 94.9902 141.179 94.457 140.81C93.9238 140.445 93.6572 139.932 93.6572 139.271C93.6572 138.802 93.8053 138.401 94.1016 138.068C94.4023 137.736 94.8171 137.515 95.3457 137.405C95.1497 137.314 94.9811 137.177 94.8398 136.995C94.7031 136.813 94.6348 136.603 94.6348 136.366C94.6348 136.093 94.71 135.854 94.8604 135.648C95.0153 135.439 95.25 135.238 95.5645 135.047C95.1725 134.887 94.8535 134.619 94.6074 134.24C94.3659 133.857 94.2451 133.413 94.2451 132.907C94.2451 132.369 94.3568 131.911 94.5801 131.533C94.8034 131.15 95.127 130.859 95.5508 130.658C95.9746 130.458 96.4873 130.357 97.0889 130.357C97.221 130.357 97.3532 130.364 97.4854 130.378C97.6221 130.387 97.752 130.403 97.875 130.426C97.998 130.444 98.1051 130.467 98.1963 130.494H100.767V131.226L99.3857 131.396C99.5225 131.574 99.6364 131.788 99.7275 132.039C99.8187 132.29 99.8643 132.568 99.8643 132.873C99.8643 133.62 99.6113 134.215 99.1055 134.657C98.5996 135.095 97.9046 135.313 97.0205 135.313C96.8109 135.313 96.5967 135.295 96.3779 135.259C96.1546 135.382 95.9837 135.519 95.8652 135.669C95.7513 135.819 95.6943 135.993 95.6943 136.188C95.6943 136.334 95.7376 136.451 95.8242 136.537C95.9154 136.624 96.0452 136.688 96.2139 136.729C96.3825 136.765 96.5853 136.783 96.8223 136.783H98.1416C98.9574 136.783 99.5817 136.954 100.015 137.296C100.452 137.638 100.671 138.137 100.671 138.793C100.671 139.622 100.334 140.258 99.6592 140.7C98.9847 141.142 98.0094 141.363 96.7334 141.363ZM96.7676 140.475C97.3874 140.475 97.9001 140.411 98.3057 140.283C98.7158 140.16 99.0212 139.98 99.2217 139.743C99.4268 139.511 99.5293 139.233 99.5293 138.909C99.5293 138.608 99.4609 138.381 99.3242 138.226C99.1875 138.075 98.987 137.975 98.7227 137.925C98.4583 137.87 98.1348 137.843 97.752 137.843H96.4531C96.1159 137.843 95.8219 137.895 95.5713 138C95.3206 138.105 95.127 138.26 94.9902 138.465C94.8581 138.67 94.792 138.925 94.792 139.23C94.792 139.636 94.9629 139.944 95.3047 140.153C95.6465 140.368 96.1341 140.475 96.7676 140.475ZM97.0615 134.486C97.6038 134.486 98.0117 134.35 98.2852 134.076C98.5586 133.803 98.6953 133.404 98.6953 132.88C98.6953 132.319 98.5563 131.9 98.2783 131.622C98.0003 131.34 97.5902 131.198 97.0479 131.198C96.5283 131.198 96.1273 131.344 95.8447 131.636C95.5667 131.923 95.4277 132.344 95.4277 132.9C95.4277 133.411 95.569 133.803 95.8516 134.076C96.1341 134.35 96.5374 134.486 97.0615 134.486ZM104.378 130.508V138H103.243V130.508H104.378ZM103.824 127.705C104.011 127.705 104.171 127.767 104.303 127.89C104.439 128.008 104.508 128.195 104.508 128.45C104.508 128.701 104.439 128.888 104.303 129.011C104.171 129.134 104.011 129.195 103.824 129.195C103.628 129.195 103.464 129.134 103.332 129.011C103.204 128.888 103.141 128.701 103.141 128.45C103.141 128.195 103.204 128.008 103.332 127.89C103.464 127.767 103.628 127.705 103.824 127.705ZM110.204 137.207C110.391 137.207 110.582 137.191 110.778 137.159C110.974 137.127 111.134 137.089 111.257 137.043V137.925C111.125 137.984 110.94 138.034 110.703 138.075C110.471 138.116 110.243 138.137 110.02 138.137C109.623 138.137 109.263 138.068 108.939 137.932C108.616 137.79 108.356 137.553 108.16 137.221C107.969 136.888 107.873 136.428 107.873 135.84V131.396H106.807V130.843L107.88 130.398L108.331 128.771H109.015V130.508H111.209V131.396H109.015V135.806C109.015 136.275 109.122 136.626 109.336 136.858C109.555 137.091 109.844 137.207 110.204 137.207ZM116.577 130.385C117.47 130.385 118.133 130.585 118.566 130.986C118.999 131.387 119.216 132.028 119.216 132.907V138H118.389L118.17 136.893H118.115C117.906 137.166 117.687 137.396 117.459 137.583C117.231 137.765 116.967 137.904 116.666 138C116.37 138.091 116.005 138.137 115.572 138.137C115.117 138.137 114.711 138.057 114.355 137.897C114.005 137.738 113.727 137.496 113.521 137.173C113.321 136.849 113.221 136.439 113.221 135.942C113.221 135.195 113.517 134.621 114.109 134.22C114.702 133.819 115.604 133.6 116.816 133.563L118.108 133.509V133.051C118.108 132.404 117.969 131.95 117.691 131.69C117.413 131.431 117.021 131.301 116.516 131.301C116.124 131.301 115.75 131.358 115.395 131.472C115.039 131.586 114.702 131.72 114.383 131.875L114.034 131.014C114.371 130.841 114.759 130.692 115.196 130.569C115.634 130.446 116.094 130.385 116.577 130.385ZM118.095 134.309L116.953 134.356C116.019 134.393 115.36 134.546 114.978 134.814C114.595 135.083 114.403 135.464 114.403 135.956C114.403 136.384 114.533 136.701 114.793 136.906C115.053 137.111 115.397 137.214 115.825 137.214C116.491 137.214 117.035 137.029 117.459 136.66C117.883 136.291 118.095 135.737 118.095 134.999V134.309ZM123.695 138H122.554V127.363H123.695V138ZM136.175 128.888C135.623 128.888 135.127 128.983 134.685 129.175C134.247 129.362 133.873 129.635 133.563 129.995C133.258 130.351 133.023 130.781 132.859 131.287C132.695 131.793 132.613 132.363 132.613 132.996C132.613 133.835 132.743 134.564 133.003 135.184C133.267 135.799 133.659 136.275 134.179 136.612C134.703 136.95 135.357 137.118 136.141 137.118C136.587 137.118 137.007 137.082 137.398 137.009C137.795 136.931 138.18 136.836 138.554 136.722V137.733C138.189 137.87 137.806 137.97 137.405 138.034C137.004 138.103 136.528 138.137 135.977 138.137C134.96 138.137 134.11 137.927 133.427 137.508C132.748 137.084 132.237 136.487 131.896 135.717C131.558 134.947 131.39 134.037 131.39 132.989C131.39 132.233 131.494 131.542 131.704 130.918C131.918 130.289 132.228 129.747 132.634 129.291C133.044 128.835 133.545 128.484 134.138 128.238C134.735 127.988 135.418 127.862 136.188 127.862C136.694 127.862 137.182 127.912 137.651 128.013C138.121 128.113 138.545 128.257 138.923 128.443L138.458 129.428C138.139 129.282 137.788 129.157 137.405 129.052C137.027 128.942 136.617 128.888 136.175 128.888ZM144.353 130.385C145.246 130.385 145.909 130.585 146.342 130.986C146.775 131.387 146.991 132.028 146.991 132.907V138H146.164L145.945 136.893H145.891C145.681 137.166 145.462 137.396 145.234 137.583C145.007 137.765 144.742 137.904 144.441 138C144.145 138.091 143.781 138.137 143.348 138.137C142.892 138.137 142.486 138.057 142.131 137.897C141.78 137.738 141.502 137.496 141.297 137.173C141.096 136.849 140.996 136.439 140.996 135.942C140.996 135.195 141.292 134.621 141.885 134.22C142.477 133.819 143.38 133.6 144.592 133.563L145.884 133.509V133.051C145.884 132.404 145.745 131.95 145.467 131.69C145.189 131.431 144.797 131.301 144.291 131.301C143.899 131.301 143.525 131.358 143.17 131.472C142.814 131.586 142.477 131.72 142.158 131.875L141.81 131.014C142.147 130.841 142.534 130.692 142.972 130.569C143.409 130.446 143.869 130.385 144.353 130.385ZM145.87 134.309L144.729 134.356C143.794 134.393 143.136 134.546 142.753 134.814C142.37 135.083 142.179 135.464 142.179 135.956C142.179 136.384 142.309 136.701 142.568 136.906C142.828 137.111 143.172 137.214 143.601 137.214C144.266 137.214 144.811 137.029 145.234 136.66C145.658 136.291 145.87 135.737 145.87 134.999V134.309ZM153.733 130.371C153.884 130.371 154.041 130.38 154.205 130.398C154.369 130.412 154.515 130.433 154.643 130.46L154.499 131.513C154.376 131.481 154.239 131.456 154.089 131.438C153.938 131.419 153.797 131.41 153.665 131.41C153.364 131.41 153.079 131.472 152.811 131.595C152.546 131.713 152.314 131.886 152.113 132.114C151.913 132.338 151.756 132.609 151.642 132.928C151.528 133.242 151.471 133.593 151.471 133.98V138H150.329V130.508H151.272L151.396 131.889H151.443C151.598 131.611 151.785 131.358 152.004 131.13C152.223 130.897 152.476 130.713 152.763 130.576C153.054 130.439 153.378 130.371 153.733 130.371ZM159.724 138.137C158.776 138.137 158.024 137.813 157.468 137.166C156.916 136.519 156.641 135.557 156.641 134.281C156.641 132.992 156.923 132.019 157.488 131.362C158.053 130.702 158.805 130.371 159.744 130.371C160.141 130.371 160.487 130.424 160.783 130.528C161.079 130.633 161.335 130.774 161.549 130.952C161.763 131.125 161.943 131.324 162.089 131.547H162.171C162.153 131.406 162.134 131.212 162.116 130.966C162.098 130.72 162.089 130.519 162.089 130.364V127.363H163.224V138H162.308L162.137 136.934H162.089C161.948 137.157 161.768 137.36 161.549 137.542C161.335 137.724 161.077 137.87 160.776 137.98C160.48 138.084 160.129 138.137 159.724 138.137ZM159.901 137.193C160.703 137.193 161.271 136.966 161.604 136.51C161.936 136.054 162.103 135.377 162.103 134.48V134.274C162.103 133.322 161.943 132.591 161.624 132.08C161.31 131.57 160.735 131.314 159.901 131.314C159.204 131.314 158.682 131.583 158.336 132.121C157.99 132.654 157.816 133.383 157.816 134.309C157.816 135.229 157.987 135.94 158.329 136.441C158.675 136.943 159.2 137.193 159.901 137.193Z" fill="#04103B"/>
<defs>
<filter id="filter0_d_114_521" x="-9.15527e-05" y="0" width="325.56" height="210.582" filterUnits="userSpaceOnUse" color-interpolation-filters="sRGB">
<feFlood flood-opacity="0" result="BackgroundImageFix"/>
<feColorMatrix in="SourceAlpha" type="matrix" values="0 0 0 0 0 0 0 0 0 0 0 0 0 0 0 0 0 0 127 0" result="hardAlpha"/>
<feOffset dy="4"/>
<feGaussianBlur stdDeviation="2"/>
<feComposite in2="hardAlpha" operator="out"/>
<feColorMatrix type="matrix" values="0 0 0 0 0 0 0 0 0 0 0 0 0 0 0 0 0 0 0.25 0"/>
<feBlend mode="normal" in2="BackgroundImageFix" result="effect1_dropShadow_114_521"/>
<feBlend mode="normal" in="SourceGraphic" in2="effect1_dropShadow_114_521" result="shape"/>
</filter>
<radialGradient id="paint0_radial_114_521" cx="0" cy="0" r="1" gradientUnits="userSpaceOnUse" gradientTransform="translate(29.4797 68) rotate(-46.5773) scale(45.1105 80.6033)">
<stop stop-color="#6CC4A1"/>
<stop offset="1" stop-color="#A0D995"/>
</radialGradient>
</defs>
</svg>
